<?xml version="1.0" standalone="no"?>
<!DOCTYPE svg PUBLIC "-//W3C//DTD SVG 20010904//EN"
 "http://www.w3.org/TR/2001/REC-SVG-20010904/DTD/svg10.dtd">
<svg version="1.0" xmlns="http://www.w3.org/2000/svg"
 width="512.000000pt" height="512.000000pt" viewBox="0 0 512.000000 512.000000"
 preserveAspectRatio="xMidYMid meet">
<metadata>
Created by potrace 1.14, written by Peter Selinger 2001-2017
</metadata>
<g transform="translate(0.000000,512.000000) scale(0.100000,-0.100000)"
fill="#000000" stroke="none">
<path d="M4050 5104 c-166 -35 -313 -106 -424 -204 -61 -55 -111 -111 -151
-168 -308 -449 -158 -1062 322 -1313 140 -74 284 -108 438 -104 107 4 147 10
240 37 63 19 223 91 235 107 3 3 24 19 46 34 95 64 220 215 270 327 14 30 29
62 34 71 9 16 29 87 36 124 2 11 8 42 13 68 17 90 12 212 -14 350 -9 46 -54
158 -87 217 -135 240 -350 396 -623 455 -61 13 -270 13 -335 -1z"/>
<path d="M466 4804 c-118 -28 -268 -124 -337 -215 -40 -53 -85 -140 -105 -205
-18 -57 -19 -134 -19 -1974 l0 -1915 23 -70 c35 -104 77 -172 156 -250 67 -66
183 -138 241 -149 11 -3 40 -9 65 -15 61 -14 3776 -15 3840 0 76 17 172 58
230 98 70 48 156 150 198 233 63 126 61 88 62 1350 l0 1146 -87 -33 c-178 -65
-309 -89 -508 -89 -164 0 -215 5 -350 36 -272 62 -515 197 -716 398 -172 172
-282 346 -365 578 -18 51 -33 93 -32 95 0 1 -7 36 -15 77 -28 129 -30 151 -32
304 -1 199 33 394 99 557 l25 59 -1157 -1 c-955 -1 -1167 -3 -1216 -15z"/>
</g>
</svg>
